<svg width="24" height="24" viewBox="0 0 24 24" fill="none" xmlns="http://www.w3.org/2000/svg">
<path d="M16.8271 9.68926C16.9642 9.56038 17.1412 9.49594 17.3182 9.49594L17.4043 9.50081L17.5112 9.52125C17.6212 9.55102 17.7248 9.60704 17.811 9.68926C18.0518 9.91797 18.0821 10.2727 17.8859 10.5327C17.7679 10.6871 17.5734 10.8154 17.2879 10.9243L17.2752 10.9156L17.1412 10.8319L17.1364 10.8294C16.9323 10.7067 16.7409 10.5907 16.6628 10.3755C16.5751 10.1373 16.6389 9.86786 16.8271 9.68926Z" fill="#B3C9E2"/>
<path d="M7.16657 10.91L6.96086 10.9319L6.95288 11.0092C6.95288 11.125 6.99594 11.2351 7.0693 11.3219H7.12192C7.1283 11.1438 7.21441 10.9817 7.35793 10.8743L7.16657 10.91Z" fill="#B3C9E2"/>
<path d="M6.75674 10.9389C6.64671 10.9387 6.53827 10.9324 6.43462 10.9204C6.42824 10.9496 6.42505 10.9793 6.42505 11.0091C6.42505 11.125 6.46811 11.2351 6.53987 11.3219H6.59409C6.59887 11.1766 6.65787 11.0419 6.75674 10.9389Z" fill="#B3C9E2"/>
<path fill-rule="evenodd" clip-rule="evenodd" d="M17.6371 2.81415L15.4732 4.27513H15.8368L17.8365 3.10293L17.8588 3.13695C17.9625 3.29838 18.0597 3.46696 18.149 3.63804L18.1682 3.67388L16.9084 4.27513H19.3705V12.5189C19.3705 16.9208 16.2051 20.5862 12.0223 21.376C7.83952 20.5862 4.67411 16.9208 4.67411 12.5189V4.27513H7.09322L5.83184 3.67393L5.85097 3.6381C5.94027 3.4667 6.03755 3.29806 6.1412 3.13695L6.16353 3.10293L8.16324 4.27513H8.52682L6.36286 2.81415L6.38678 2.78146L6.54465 2.57654L6.75355 2.32853L6.78066 2.29802L9.09612 4.17039L9.20774 4.0526L7.02305 2.04124L7.05175 2.01239L7.2479 1.82634L7.4871 1.61727L7.5174 1.59093L9.50913 3.77718L9.6383 3.67717L7.79806 1.37238L7.83155 1.34811C7.99101 1.2317 8.15526 1.12136 8.3227 1.01998L8.35778 0.99854L9.98115 3.44758L10.1247 3.367L8.67034 0.822555L8.70542 0.803358L8.90157 0.704699L9.0706 0.626276L9.24442 0.550627L9.28269 0.534574L10.4994 3.19047L10.6509 3.13201L9.61757 0.405783L9.65744 0.392131C9.84242 0.327976 10.0354 0.270326 10.2299 0.220778L10.2698 0.210488L11.0512 3.01159L11.2122 2.97599L10.6222 0.132414L10.6637 0.124628L10.9571 0.0757907L11.2569 0.0383935L11.2983 0.0340762L11.6268 2.91548L11.7911 2.90369L11.6587 0.00831444L11.7002 0.00655904L11.9681 0L12.2998 0.00655904L12.3413 0.00831444L12.2233 2.90444L12.3732 2.91548L12.7017 0.0341829L12.7431 0.0385003C12.944 0.0591381 13.1434 0.0881497 13.3363 0.124734L13.3778 0.132521L12.8005 2.97853L12.9488 3.01158L13.7302 0.210488L13.7701 0.220778L13.9806 0.277656L14.1305 0.322555L14.3426 0.392131L14.3824 0.405783L13.3491 3.13199L13.5006 3.19043L14.7173 0.53452L14.7556 0.550574C14.9406 0.627794 15.1208 0.7128 15.2946 0.803358L15.3313 0.822555L13.8769 3.36765L14.0188 3.44749L15.6422 0.998492L15.6773 1.01998C15.7921 1.08952 15.9053 1.1631 16.017 1.23974L16.1685 1.34811L16.2019 1.37238L14.3617 3.67705L14.4909 3.77706L16.4826 1.59098L16.5129 1.61733L16.7011 1.77889L16.9482 2.01239L16.9769 2.04124L14.7923 4.05236L14.9039 4.17024L17.2193 2.29798L17.2464 2.32848C17.3756 2.47551 17.5 2.62792 17.6132 2.78146L17.6371 2.81415ZM13.6792 10.4532L13.9216 10.4787L14.1512 10.4871C14.5562 10.4871 14.9182 10.4057 15.2595 10.2433C15.6534 10.0555 15.8926 9.73916 15.9021 9.39727C15.9037 9.34445 15.899 9.29318 15.8878 9.24446L15.8687 9.17546L15.8447 9.11499C15.7985 9.01655 15.7251 8.93641 15.6326 8.88667C15.5625 8.84995 15.4891 8.83061 15.4078 8.82833L15.4732 8.75917L15.5689 8.64804C15.6247 8.5788 15.6773 8.5063 15.7251 8.43039C15.9564 8.06748 15.9835 7.67332 15.7953 7.37595C15.6741 7.18201 15.4748 7.06752 15.2754 7.07653C15.1463 7.08256 15.0251 7.13842 14.923 7.23791C14.9326 7.16149 14.9406 7.08431 14.9438 7.00619C14.9565 6.57726 14.7747 6.21672 14.4558 6.0418C14.2485 5.92783 14.0109 5.92014 13.8402 6.02162C13.8099 6.03956 13.7828 6.06037 13.7573 6.08387C13.7334 6.10619 13.7127 6.13093 13.6935 6.15794L13.6521 6.22848C13.6345 6.26422 13.6202 6.30289 13.609 6.34423L13.5532 6.21734C13.3666 5.8206 13.0333 5.56918 12.6602 5.54462C12.4178 5.52881 12.1993 5.62076 12.0909 5.78504C12.0159 5.90105 11.9968 6.04177 12.0351 6.19479C11.7034 5.90926 11.2968 5.80667 10.9475 5.92029C10.7147 5.99601 10.5489 6.16324 10.517 6.35671C10.4803 6.56588 10.5951 6.77831 10.8407 6.95413C11.3159 7.31484 11.6508 7.7256 11.8565 8.20109C11.6843 8.36284 11.5774 8.58695 11.5774 8.83424C11.5774 8.96528 11.6077 9.0913 11.6651 9.20911C11.4977 9.75648 11.3191 10.2832 11.1261 10.7908L11.1054 10.4259V10.4179C11.091 10.149 11.0767 9.87389 11.048 9.60074C11.0352 9.47669 11.0209 9.35305 11.0017 9.2306C10.9603 8.97997 10.8821 8.66853 10.6382 8.42991C10.7849 8.36426 10.8678 8.2405 10.9332 8.12622L10.9906 8.02337L10.8726 8.05182C10.6716 8.09955 10.4596 8.14244 10.2475 8.09887C9.81531 8.00867 9.49638 8.03196 9.30023 8.1681C9.18701 8.24592 9.11844 8.35899 9.08974 8.50482C8.85373 8.45882 8.57785 8.46371 8.34662 8.5668C8.12656 8.66527 7.97825 8.84093 7.92244 9.07487L7.90331 9.15348L7.98623 9.13678C8.24775 9.08403 8.59061 9.07083 8.93186 9.22126C8.63047 9.21276 8.34184 9.25204 8.13932 9.32882L8.15207 9.40317C8.50449 9.42505 8.80907 9.47202 9.08814 9.54902C8.98449 9.56792 8.87924 9.57489 8.77878 9.57552C8.68629 9.57609 8.60017 9.57136 8.52522 9.5656L8.40244 9.55628L8.47898 9.64843C8.69426 9.91232 8.96535 10.0434 9.30502 10.0449L8.83937 11.3595L8.92867 11.3468L9.03871 11.3262C9.00043 11.6392 8.99725 11.9226 9.02914 12.1757C8.66396 11.9463 8.30994 11.6683 7.95912 11.337L7.94317 11.3219H7.59713C7.52537 11.2351 7.48231 11.125 7.48231 11.0092C7.48231 10.9695 7.4871 10.9301 7.49667 10.8917L7.51102 10.8337C7.69281 10.7782 7.84749 10.7026 7.95912 10.6114L8.06756 10.5223L7.92563 10.5441C7.69919 10.5789 7.45361 10.6032 7.19687 10.6162C7.54132 10.5226 7.90809 10.3283 7.98304 10.0338L7.98463 10.0218C7.97985 9.96586 7.95115 9.91188 7.90649 9.87309L7.85068 9.83852C7.80603 9.8175 7.75819 9.81155 7.71513 9.82039C7.70557 9.745 7.64656 9.68742 7.57799 9.65944L7.52856 9.64463L7.47912 9.63865C7.43926 9.63769 7.3978 9.6463 7.36271 9.66782C7.3356 9.60738 7.2782 9.56213 7.20325 9.54543C7.11714 9.5264 7.03102 9.54895 6.97362 9.60148C6.92418 9.54168 6.84923 9.50538 6.76153 9.50538C6.72963 9.50538 6.69774 9.51058 6.66903 9.52029C6.62119 9.53623 6.58133 9.56435 6.55103 9.60153C6.51914 9.57324 6.47927 9.55361 6.43621 9.54451C6.39954 9.53671 6.35967 9.53663 6.3198 9.54543C6.24645 9.56213 6.18904 9.60738 6.16034 9.66782C6.09496 9.62814 6.01044 9.63236 5.94506 9.65944C5.89881 9.6786 5.85576 9.71165 5.83024 9.7548C5.81908 9.77465 5.8111 9.79664 5.80792 9.82039C5.76486 9.81155 5.71702 9.8175 5.67396 9.83852C5.59742 9.87435 5.5448 9.94627 5.53842 10.0218L5.54001 10.0338C5.61496 10.3286 5.98173 10.523 6.32778 10.6165C6.06944 10.6036 5.82067 10.5792 5.59264 10.5441L5.4523 10.5223L5.55915 10.6114C5.7218 10.7444 5.97695 10.8443 6.27356 10.897C6.1412 11.0085 6.06466 11.1693 6.06466 11.3437C6.06466 11.3867 6.08379 11.4313 6.10133 11.471V11.4759L6.10293 11.4788L6.12206 11.5255L6.13323 11.5645C6.17628 11.6293 6.22093 11.6893 6.27196 11.7424C6.32937 11.8008 6.39794 11.8508 6.47449 11.89C6.67701 11.9935 6.91302 12.0085 7.12192 11.9317C7.84909 12.1547 8.412 12.6956 8.83778 13.5847L8.86648 13.6427L9.49957 13.1943C9.61119 13.3001 9.74195 13.3965 9.88547 13.4802C9.54422 14.0916 9.17744 14.671 8.77878 15.2223C8.62409 15.1705 8.45506 15.1685 8.29559 15.2153L8.23021 15.2381L8.15367 15.2719C8.04682 15.3264 7.95752 15.4017 7.88736 15.4915L7.85228 15.5415L7.814 15.607L7.79327 15.6537L7.78211 15.691L7.75819 15.7788V15.8574C7.75819 16.0669 7.86822 16.2568 8.0532 16.3652L8.16483 16.4308L8.13294 16.3096L8.12177 16.2488L8.12018 16.192C8.12018 16.1218 8.13453 16.0537 8.16324 15.9916L8.2047 15.9187L8.235 15.8804L8.27167 15.84H8.28762V15.8574C8.28762 16.0669 8.39606 16.2568 8.58104 16.3652L8.69266 16.4309L8.66237 16.3096C8.6528 16.2711 8.64642 16.2317 8.64642 16.192C8.64642 16.0579 8.70383 15.9315 8.8011 15.84H8.81386V15.8573C8.81386 16.0669 8.92549 16.2567 9.10887 16.3652L9.2205 16.4308L9.1902 16.3096C9.18063 16.2711 9.17585 16.2315 9.17585 16.192C9.17585 16.0579 9.23166 15.9315 9.32894 15.84H9.6383L9.65265 15.8071C10.0226 14.902 10.5696 14.3304 11.3717 14.008L11.402 13.9958L11.4211 13.7696L11.4387 13.7646C11.8645 13.6342 12.2807 13.4795 12.6841 13.302C12.7208 13.7327 12.9823 14.1787 13.4735 14.6355C13.5293 14.8703 13.4464 15.0403 13.204 15.1834C12.8579 15.1556 12.5358 15.3539 12.4098 15.6537L12.4003 15.6911L12.3987 15.698L12.3763 15.7786L12.3747 15.84V15.8573C12.3747 16.0669 12.4864 16.2567 12.6698 16.3652L12.783 16.4309L12.7527 16.3096L12.7383 16.2459L12.7367 16.192C12.7367 16.106 12.7591 16.0232 12.8021 15.9508C12.8244 15.9102 12.8531 15.8728 12.8882 15.84H12.9042V15.8573C12.9042 16.0668 13.0142 16.2567 13.1992 16.3652L13.3108 16.4309L13.2805 16.3096C13.2694 16.2712 13.2662 16.2317 13.2662 16.192C13.2662 16.1223 13.2805 16.0548 13.3076 15.9931C13.3331 15.936 13.3714 15.8839 13.4177 15.84H13.432V15.8573C13.432 16.0668 13.542 16.2567 13.727 16.3652L13.8386 16.4309L13.8084 16.3096L13.7956 16.2494L13.794 16.192C13.794 16.0579 13.8482 15.9315 13.9455 15.84H14.2134L14.2214 15.7998C14.3218 15.3757 14.6296 15.1043 14.9007 14.8649L14.9055 14.8605L15.049 14.7321L15.0857 14.6978L15.0506 14.6609C14.695 14.2797 14.6679 13.9915 14.7556 13.697C15.0315 13.8999 15.3759 14.0543 15.7666 14.1412C15.8798 14.2491 15.9452 14.3714 15.9596 14.5048C15.9914 14.7842 15.7889 14.9099 15.5752 15.043C15.5051 15.087 15.4333 15.1323 15.3695 15.183C14.982 15.1545 14.6232 15.4125 14.5483 15.7786L14.5371 15.84H14.5578V15.8578C14.5578 16.0673 14.6679 16.2572 14.8529 16.3657L14.9629 16.4315L14.9326 16.31C14.923 16.2717 14.9198 16.2323 14.9198 16.1925C14.9198 16.0582 14.9741 15.9315 15.0713 15.84H15.0857V15.8573C15.0857 16.0669 15.1957 16.2567 15.3807 16.3652L15.4923 16.4309L15.462 16.3096C15.4524 16.2712 15.4461 16.2317 15.4461 16.192C15.4461 16.0579 15.5019 15.9315 15.5992 15.84H15.6151V15.8574C15.6151 16.0669 15.7235 16.2568 15.9085 16.3652L16.0202 16.4308L15.9899 16.3096L15.9819 16.2711L15.9755 16.192L15.9787 16.1345L15.9851 16.0911C15.9978 16.0363 16.0186 15.9842 16.0473 15.9369L16.0744 15.9L16.1286 15.84H16.3853L16.3933 15.7997C16.4938 15.3751 16.8143 15.0975 17.1077 14.8707L17.1268 14.8558L17.1667 13.3929L17.1268 13.3816C16.4013 13.1715 16.3423 12.7897 16.2689 12.3065C16.2434 12.1377 16.2163 11.9637 16.1589 11.7856C16.5512 11.7644 16.8908 11.7132 17.1922 11.6296L17.2672 11.6924L17.3326 11.7572C17.382 11.8107 17.4187 11.8645 17.4442 11.9215C17.4219 11.9727 17.4059 12.0254 17.3932 12.0794C17.3772 12.1497 17.3676 12.2222 17.3676 12.2962C17.3676 12.6091 17.5159 12.8945 17.7647 13.0596L17.7966 13.0801L17.8269 13.0596C18.0773 12.8944 18.2256 12.609 18.2256 12.2962C18.2256 12.142 18.1889 11.9902 18.1171 11.8566C18.0725 11.6647 17.9864 11.5048 17.854 11.3585C17.9784 11.2913 18.09 11.2172 18.1873 11.1366L18.2431 11.0876L18.3292 11.0051L18.4233 10.8943L18.4584 10.8476C18.7997 10.358 18.7215 9.66981 18.2766 9.24688C18.0215 9.00457 17.6818 8.87101 17.3182 8.87085C16.9562 8.87085 16.6166 9.00442 16.3614 9.24688C16.001 9.58968 15.875 10.0902 16.0313 10.5531C16.1222 10.8243 16.2817 10.9938 16.4523 11.1267C16.2035 11.1552 15.9372 11.1617 15.6741 11.1451C15.3791 10.9681 14.9597 10.9139 14.3936 10.9793C14.207 11.0008 14.03 11.0415 13.861 11.0897L13.5149 11.1965L13.3618 11.2448C13.3028 11.2097 13.2406 11.1784 13.1737 11.1512L13.0844 11.1182L12.9265 11.0736C13.314 11.046 13.66 10.9031 13.8705 10.6797L13.9024 10.6455L13.8705 10.6112L13.8084 10.552C13.7685 10.5166 13.7254 10.4836 13.6792 10.4532Z" fill="#B3C9E2"/>
<path d="M1.87547 4.57468L1.94883 4.56149V11.4489C1.66976 11.3687 1.38431 11.2952 1.09568 11.2285L1 11.2066L1.06857 11.2731L1.51029 11.709C1.657 11.8583 1.80531 12.0136 1.94883 12.1724V12.6682L1.7766 12.7523C1.56132 12.8607 1.35083 12.9809 1.14352 13.112L1.09249 13.1442L1.1499 13.1599C1.31734 13.2043 1.48159 13.2513 1.64265 13.3007L1.94883 13.3981V13.9866L1.66976 14.0636C1.47999 14.1217 1.30777 14.1934 1.21687 14.297C1.13714 14.3645 1.11801 14.4527 1.12438 14.555C1.12917 14.6302 1.1483 14.7131 1.16903 14.8008L1.18977 14.8898L1.2105 14.9968C1.25993 15.2728 1.19614 15.5411 1.13395 15.8008L1.13236 15.8084V15.8265C1.07654 16.0435 1 16.3394 1.3285 16.4427L1.53421 16.5129L1.73355 16.5918L1.94883 16.6909V20.5469C1.62351 20.5738 1.36837 20.8356 1.36837 21.1534V21.4011L4.4062 21.4083V21.1534C4.4062 20.8358 4.15106 20.5741 3.82575 20.5469V18.3049L3.98681 18.515L4.22601 18.8336L4.23558 18.8434L4.30893 18.9411C5.88127 21.039 7.89214 22.5085 10.0816 23.1834V23.1855C9.97637 23.343 9.94448 23.4591 9.98275 23.5507C10.0242 23.6629 10.1645 23.7235 10.3607 23.7801L10.5536 23.8317C11.0081 23.9439 11.5057 24 12.0016 24C12.5103 24 13.019 23.9411 13.483 23.8233L13.6425 23.7801C13.8371 23.7235 13.9774 23.6629 14.0204 23.5507C14.0571 23.4591 14.0252 23.343 13.9216 23.1855L13.92 23.1834C16.1095 22.5085 18.1203 21.039 19.6927 18.9411L19.766 18.8434L19.7756 18.8336C19.9063 18.6578 20.0387 18.4798 20.1758 18.3049V20.5469C19.8505 20.5741 19.5954 20.8358 19.5954 21.1534V21.4083L22.6332 21.4011V21.1534C22.6332 20.8356 22.3781 20.5738 22.0528 20.5469V16.6909L22.2665 16.5918C22.4004 16.5356 22.5344 16.4861 22.6747 16.4427C23 16.3394 22.9235 16.0435 22.8692 15.8265V15.8084L22.866 15.8008C22.8342 15.662 22.7991 15.5208 22.7831 15.3772C22.7672 15.2522 22.7672 15.1253 22.7895 14.9968L22.8118 14.8898L22.8342 14.8008C22.8533 14.7131 22.8724 14.6302 22.8788 14.555C22.8788 14.5166 22.8788 14.4802 22.8724 14.4461C22.8597 14.3894 22.8342 14.3392 22.7831 14.297C22.6492 14.1433 22.3366 14.0597 22.0528 13.9866V13.3981L22.3589 13.3007C22.5216 13.2513 22.6843 13.2043 22.8533 13.1599L22.9107 13.1442L22.8597 13.112L22.6013 12.9562L22.4004 12.8446C22.2856 12.7823 22.1708 12.7235 22.0528 12.6682V12.1724C22.343 11.8512 22.6556 11.544 22.933 11.2731L23 11.2066L22.9043 11.2285C22.6173 11.2952 22.3302 11.3687 22.0528 11.4489V4.56149L22.1261 4.57468L22.1453 4.57675L22.2186 4.58032C22.3876 4.58032 22.5471 4.52374 22.6843 4.41761C22.8469 4.29106 22.949 4.10607 22.9681 3.91008C22.9872 3.70449 22.9203 3.50141 22.7767 3.33822C22.6683 3.21241 22.5216 3.12064 22.3589 3.07429V2.59011H19.8697V3.07405C19.7086 3.12037 19.5603 3.21221 19.4503 3.33811C19.3083 3.50135 19.2414 3.70443 19.2605 3.90996C19.2796 4.10595 19.3833 4.29095 19.5444 4.4175C19.699 4.53899 19.8904 4.59562 20.0834 4.57674L20.1758 4.56149V12.1224L20.128 12.1435C19.707 12.3304 19.5683 12.5876 19.6672 13.0034L19.7198 13.2083C19.782 13.4435 19.8298 13.6293 19.7915 13.8888V13.895C19.758 14.1161 19.7038 14.486 19.9382 14.6021L19.9398 14.6006L19.951 14.6052L20.0977 14.6526L20.1758 14.6713V15.6652L19.9207 15.8564L19.8521 15.9117L19.6241 16.1046C19.0644 16.6032 18.6434 17.1658 18.2001 17.7613L18.1427 17.8368C16.6484 19.8371 14.7333 21.1342 12.6012 21.5889C12.5757 21.599 12.5549 21.6153 12.5406 21.636L12.5231 21.6667L12.5183 21.696L12.5039 22.0582L12.472 22.0624C12.1467 22.1017 11.823 22.1004 11.4977 22.0582L11.4833 21.696C11.4817 21.6737 11.4738 21.6533 11.461 21.636C11.4467 21.6153 11.4259 21.599 11.4004 21.5889C9.26834 21.1342 7.35315 19.8371 5.85894 17.8368L5.80154 17.7613C5.35822 17.1658 4.93723 16.6032 4.3775 16.1046L4.24195 15.9874L4.08089 15.8564L3.82575 15.6652V14.6713C3.89272 14.6574 3.96448 14.6366 4.05059 14.6052L4.06176 14.6006L4.06335 14.6021C4.29777 14.486 4.24355 14.1161 4.21006 13.895V13.8888C4.17179 13.6293 4.21963 13.4435 4.28182 13.2083L4.33444 13.0034C4.43331 12.5876 4.29458 12.3304 3.87359 12.1435L3.82575 12.1224V4.56149L3.91824 4.57674C4.11119 4.59562 4.30255 4.53899 4.45723 4.4175C4.6183 4.29095 4.72195 4.10595 4.74108 3.90996C4.76022 3.70443 4.69324 3.50135 4.55132 3.33811C4.44129 3.21221 4.29298 3.12037 4.13192 3.07405V2.59011H1.64265V3.07429C1.48159 3.12064 1.33488 3.21241 1.22485 3.33822C1.08133 3.50141 1.01435 3.70449 1.03349 3.91008C1.05262 4.10607 1.15628 4.29106 1.31734 4.41761C1.45288 4.52374 1.61554 4.58032 1.78298 4.58032L1.85634 4.57675L1.87547 4.57468Z" fill="#B3C9E2"/>
</svg>
